<?xml version="1.0" encoding="UTF-8"?>
<svg width="640px" height="384px" viewBox="0 0 640 384" version="1.1" xmlns="http://www.w3.org/2000/svg" xmlns:xlink="http://www.w3.org/1999/xlink">
    <title>export/web/docs/-docsTeaserKiosk-640x384</title>
    <defs>
        <path d="M30.3011719,0 L273.898828,0 C290.633703,0 304.2,13.5662967 304.2,30.3011719 L304.2,273.898828 C304.2,290.633703 290.633703,304.2 273.898828,304.2 L30.3011719,304.2 C13.5662967,304.2 0,290.633703 0,273.898828 L0,30.3011719 C0,13.5662967 13.5662967,0 30.3011719,0 Z" id="path-1"></path>
    </defs>
    <g id="export/web/docs/-docsTeaserKiosk-640x384" stroke="none" stroke-width="1" fill="none" fill-rule="evenodd">
        <rect id="BG" fill="#EBF0F5" x="0" y="0" width="640" height="384"></rect>
        <g id="export/—Launchpad" transform="translate(168.000000, 40.000000)">
            <g id="assets/AppTile">
                <mask id="mask-2" fill="white">
                    <use xlink:href="#path-1"></use>
                </mask>
                <use id="Mask" fill="#FFFFFF" xlink:href="#path-1"></use>
            </g>
            <g id="export/icon" transform="translate(38.025000, 38.025000)" fill="#009999">
                <path d="M182.987147,189.234582 C194.660658,189.234582 203.964267,196.472015 211.439496,202.286518 C212.266066,202.929812 213.082106,203.56482 213.889873,204.180996 L206.137115,214.371254 C205.298512,213.731727 204.450883,213.072614 203.592725,212.404462 C197.046353,207.312346 190.276604,202.046225 182.987147,202.046225 C177.958534,202.046225 174.267175,204.816004 169.594311,208.322483 C164.075322,212.46397 157.819265,217.157606 148.530697,217.157606 C139.24213,217.157606 132.986825,212.46397 127.467836,208.322483 C122.794972,204.816004 119.103612,202.046225 114.075,202.046225 C109.046388,202.046225 105.354276,204.816004 100.681412,208.322483 C95.1624233,212.46397 88.9071182,217.157606 79.6185506,217.157606 C70.3299829,217.157606 64.0746779,212.46397 58.5556893,208.322483 C53.8820731,204.816004 50.1907136,202.046225 45.1621012,202.046225 C37.873396,202.046225 31.1028951,207.312346 24.5557711,212.405215 C23.6983648,213.072614 22.850736,213.731727 22.0128846,214.371254 L14.259375,204.180996 C15.0671419,203.56482 15.8831821,202.929812 16.7097518,202.287272 C24.1857326,196.472015 33.4893424,189.234582 45.1621012,189.234582 C54.4506688,189.234582 60.706726,193.928217 66.2257146,198.069704 C70.8993308,201.576183 74.5899382,204.345963 79.6185506,204.345963 C84.647163,204.345963 88.3385225,201.576183 93.0113866,198.069704 C98.5303752,193.92897 104.786432,189.234582 114.075,189.234582 C123.363568,189.234582 129.618873,193.92897 135.137861,198.069704 C139.811477,201.576183 143.502837,204.345963 148.530697,204.345963 C153.55931,204.345963 157.250669,201.576183 161.924285,198.069704 C167.443274,193.928217 173.698579,189.234582 182.987147,189.234582 Z M182.987147,162.200391 C194.660658,162.200391 203.964267,169.437071 211.439496,175.251574 C212.266066,175.895621 213.082106,176.529876 213.889873,177.146805 L213.889873,177.146805 L206.137115,187.33631 C205.298512,186.696782 204.450883,186.037669 203.592725,185.370271 C197.046353,180.278155 190.276604,175.012033 182.987147,175.012033 C177.958534,175.012033 174.267175,177.781813 169.594311,181.288292 C164.075322,185.429779 157.819265,190.122661 148.530697,190.122661 C139.24213,190.122661 132.986825,185.429779 127.467836,181.288292 C122.794972,177.781813 119.103612,175.012033 114.075,175.012033 C109.046388,175.012033 105.354276,177.781813 100.681412,181.288292 C95.1624233,185.429779 88.9071182,190.122661 79.6185506,190.122661 C70.3299829,190.122661 64.0746779,185.429779 58.5556893,181.288292 C53.8820731,177.781813 50.1907136,175.012033 45.1621012,175.012033 C37.873396,175.012033 31.1028951,180.278155 24.5557711,185.371024 C23.6983648,186.037669 22.850736,186.696782 22.0128846,187.33631 L22.0128846,187.33631 L14.259375,177.146805 C15.0671419,176.529876 15.8831821,175.895621 16.7097518,175.252327 C24.1857326,169.437071 33.4893424,162.200391 45.1621012,162.200391 C54.4506688,162.200391 60.706726,166.893272 66.2257146,171.03476 C70.8993308,174.541992 74.5899382,177.311018 79.6185506,177.311018 C84.647163,177.311018 88.3385225,174.541992 93.0113866,171.03476 C98.5303752,166.894026 104.786432,162.200391 114.075,162.200391 C123.363568,162.200391 129.618873,166.894026 135.137861,171.03476 C139.811477,174.541992 143.502837,177.311018 148.530697,177.311018 C153.55931,177.311018 157.250669,174.541992 161.924285,171.03476 C167.443274,166.893272 173.698579,162.200391 182.987147,162.200391 Z M185.373225,129.269997 L185.372441,155.131605 C184.594269,155.090776 183.800234,155.070703 182.987147,155.070703 C173.31772,155.070703 167.442666,157.979878 157.644988,165.332124 C152.358001,169.299649 150.69266,170.181331 148.530697,170.181331 C146.369443,170.181331 144.704073,169.299595 139.417251,165.332193 C138.522887,164.661178 138.116832,164.357926 137.594621,163.973209 C129.439956,157.965612 122.973539,155.070703 114.075,155.070703 C104.405997,155.070703 98.5327205,157.979 88.7325872,165.33175 C83.4463349,169.299363 81.7805259,170.181331 79.6185506,170.181331 C77.4568777,170.181331 75.7927552,169.300217 70.5051046,165.332193 C60.7081034,157.980456 54.8315593,155.070703 45.1621012,155.070703 C44.3493173,155.070703 43.5555698,155.090764 42.7776752,155.131566 L42.7767747,129.269997 C55.2085053,141.635252 82.5577728,149.723438 114.075,149.723438 C145.592227,149.723438 172.941495,141.635252 185.373225,129.269997 Z M185.373225,93.6215598 L185.371875,114.075 C185.371875,128.999596 153.652183,142.59375 114.075,142.59375 C74.4978174,142.59375 42.778125,128.999596 42.778125,114.075 L42.7767747,93.6215598 C55.2085053,105.986814 82.5577728,114.075 114.075,114.075 C145.592227,114.075 172.941495,105.986814 185.373225,93.6215598 Z M185.373225,57.9731223 L185.371875,78.4265625 C185.371875,93.3511586 153.652183,106.945313 114.075,106.945313 C74.4978174,106.945313 42.778125,93.3511586 42.778125,78.4265625 L42.7767747,57.9731223 C55.2085053,70.3383767 82.5577728,78.4265625 114.075,78.4265625 C145.592227,78.4265625 172.941495,70.3383767 185.373225,57.9731223 Z M114.075,14.259375 C153.652183,14.259375 185.371875,27.8535289 185.371875,42.778125 C185.371875,57.7027211 153.652183,71.296875 114.075,71.296875 C74.4978174,71.296875 42.778125,57.7027211 42.778125,42.778125 C42.778125,27.8535289 74.4978174,14.259375 114.075,14.259375 Z" id="Combined-Shape"></path>
            </g>
        </g>
    </g>
</svg>